<svg width="174" height="206" preserveAspectRatio="none" viewbox="0 0 174 206" xmlns="http://www.w3.org/2000/svg" xmlns:xlink="http://www.w3.org/1999/xlink" overflow="hidden"><defs><clipPath id="clip0"><rect x="1732" y="880" width="174" height="206"/></clipPath></defs><g clip-path="url(#clip0)" transform="translate(-1732 -880)"><path d="M1733.18 951.542 1733.12 926.984 1818.23 884.645 1818.29 909.203Z" fill="#000000" fill-rule="evenodd" fill-opacity="1"/><path d="M1808.44 1063.45 1887.87 1023.94 1897.67 1043.63 1818.24 1083.14Z" fill="#000000" fill-rule="nonzero" fill-opacity="1"/><path d="M0 22.0321 10.8948 0 106.782 0 95.8871 22.0321Z" fill="#000000" fill-rule="evenodd" fill-opacity="1" transform="matrix(-0.898794 -0.438371 -0.438371 0.898794 1914.11 931.397)"/><path d="M0 22.0321 10.8949 0 105.95 0 95.0555 22.0321Z" fill="#000000" fill-rule="evenodd" fill-opacity="1" transform="matrix(-0.895345 -0.445374 -0.445374 0.895345 1828.05 1063.34)"/><rect x="1733" y="927" width="22" height="112" fill="#000000" fill-opacity="1"/><path d="M1853.19 1041.87 1876.17 1030.65 1871.04 1020.15 1905.86 1027.75 1890.44 1059.88 1885.31 1049.38 1862.34 1060.6Z" fill="#000000" fill-rule="evenodd" fill-opacity="1"/></g></svg>